<?xml version="1.0" standalone="no"?>
<!DOCTYPE svg PUBLIC "-//W3C//DTD SVG 20010904//EN"
 "http://www.w3.org/TR/2001/REC-SVG-20010904/DTD/svg10.dtd">
<svg version="1.0" xmlns="http://www.w3.org/2000/svg"
 width="112.000000pt" height="112.000000pt" viewBox="0 0 112.000000 112.000000"
 preserveAspectRatio="xMidYMid meet">
<metadata>
Created by potrace 1.14, written by Peter Selinger 2001-2017
</metadata>
<g transform="translate(0.000000,112.000000) scale(0.100000,-0.100000)"
fill="#000000" stroke="none">
<path d="M505 1003 c-25 -7 -37 -24 -29 -43 4 -8 8 -39 9 -69 2 -43 7 -59 25
-73 51 -42 99 -15 111 63 4 30 11 63 14 74 3 11 1 26 -4 34 -9 14 -91 24 -126
14z m103 -28 c2 -2 0 -15 -4 -29 -5 -21 -9 -24 -20 -15 -8 6 -27 9 -43 6 -28
-6 -41 5 -41 33 0 15 90 19 108 5z m-30 -106 c-6 -4 -8 -11 -4 -17 3 -6 -4 -9
-18 -8 -14 0 -22 6 -19 14 3 6 -1 12 -8 12 -10 1 -8 5 5 15 14 11 22 11 37 2
12 -7 14 -14 7 -18z"/>
<path d="M280 802 c0 -84 1 -85 121 -87 l87 -2 -52 42 c-28 22 -75 58 -103 79
l-53 38 0 -70z"/>
<path d="M727 797 c-53 -40 -96 -75 -96 -78 -1 -11 163 -4 182 7 14 8 19 24
19 72 1 34 -1 64 -3 67 -3 2 -49 -28 -102 -68z"/>
<path d="M43 672 c-25 -4 -31 -27 -10 -35 6 -2 12 -20 11 -38 -1 -19 4 -37 10
-41 6 -5 2 -8 -11 -8 -15 0 -23 -6 -23 -17 0 -15 9 -18 50 -18 41 0 50 3 50
18 0 12 -8 17 -27 18 -16 1 -21 3 -12 6 13 3 17 16 16 58 -2 57 -9 64 -54 57z"/>
<path d="M201 672 c-38 -6 -51 -26 -51 -80 0 -42 4 -52 25 -66 16 -11 25 -12
25 -5 0 7 4 8 13 2 17 -13 56 -8 74 10 24 24 24 93 0 123 -14 18 -23 22 -30
15 -6 -6 -15 -7 -21 -3 -6 4 -22 6 -35 4z m49 -71 c0 -44 -2 -49 -25 -53 -24
-5 -25 -3 -22 41 1 36 6 47 22 53 11 3 21 6 23 7 1 1 2 -21 2 -48z"/>
<path d="M488 673 c-15 -4 -18 -16 -18 -83 0 -74 1 -79 20 -75 34 6 70 55 41
55 -5 0 -9 21 -9 46 0 51 -8 63 -34 57z"/>
<path d="M605 672 c-36 -7 -45 -23 -45 -77 0 -38 5 -56 18 -68 26 -24 32 -13
32 55 0 51 2 58 20 58 22 0 28 25 8 32 -7 2 -22 2 -33 0z"/>
<path d="M660 616 c0 -59 -2 -66 -20 -66 -13 0 -20 -7 -20 -19 0 -15 6 -18 31
-15 50 6 60 20 57 82 -2 44 -8 58 -25 70 l-23 14 0 -66z"/>
<path d="M813 666 c-15 -8 -15 -10 -1 -20 19 -14 29 -96 11 -96 -16 0 -28 -21
-15 -29 5 -3 30 -6 54 -5 32 0 44 4 46 17 2 10 -3 17 -12 17 -11 0 -15 11 -14
48 0 26 0 54 -1 62 -1 17 -43 20 -68 6z"/>
<path d="M958 662 c-29 -21 -22 -119 10 -140 l22 -14 0 66 c0 59 2 66 20 66
12 0 20 7 20 18 0 21 -43 23 -72 4z"/>
<path d="M1045 670 c-4 -6 -7 -36 -6 -66 0 -48 -2 -54 -20 -54 -29 0 -21 -33
9 -35 12 -1 31 5 42 12 28 20 29 112 1 137 -13 12 -21 14 -26 6z"/>
<path d="M419 611 c-20 -25 -34 -52 -32 -58 7 -19 73 -17 73 2 0 8 -5 15 -11
15 -8 0 -8 4 0 14 7 8 11 28 9 44 l-3 29 -36 -46z"/>
<path d="M345 590 c3 -5 8 -10 11 -10 2 0 4 5 4 10 0 6 -5 10 -11 10 -5 0 -7
-4 -4 -10z"/>
<path d="M750 590 c0 -5 5 -10 10 -10 6 0 10 5 10 10 0 6 -4 10 -10 10 -5 0
-10 -4 -10 -10z"/>
<path d="M370 456 c0 -1 21 -18 48 -36 26 -19 58 -44 71 -56 58 -53 63 -53
153 16 46 35 87 67 92 71 5 5 -75 8 -177 9 -103 0 -187 -2 -187 -4z"/>
<path d="M282 383 l3 -68 134 -102 135 -101 40 28 c23 16 76 57 120 90 43 33
87 66 97 74 15 10 20 26 20 75 1 34 -1 64 -4 67 -3 3 -64 -40 -135 -95 -72
-56 -133 -101 -137 -101 -4 0 -21 11 -39 25 -38 31 -34 28 -131 101 -115 87
-106 86 -103 7z"/>
</g>
</svg>
