<svg width="817" height="662" viewBox="0 0 817 662" fill="none" xmlns="http://www.w3.org/2000/svg">
<path fill-rule="evenodd" clip-rule="evenodd" d="M462.711 13.2637C467.144 17.5684 469.924 23.5672 468.8 30.6839C466.382 45.9946 461.201 61.0543 456.739 72.1115C455.411 75.4044 454.133 78.3743 452.99 80.9273C456.207 87.63 458.008 95.1406 458.008 103.072C458.008 131.374 435.065 154.318 406.763 154.318C378.46 154.318 355.517 131.374 355.517 103.072C355.517 93.9172 357.917 85.3232 362.123 77.8849C361.293 75.4675 360.377 72.7674 359.411 69.8711C355.622 58.505 351.009 43.9128 347.905 31.4976C346.103 24.2903 349.209 18.2878 353.415 14.2992C357.324 10.5923 362.672 8.00803 368.042 6.13963C378.965 2.33909 393.449 0.333162 407.507 0.0382538C421.541 -0.25614 436.226 1.13105 447.482 4.81142C453.054 6.63312 458.605 9.27639 462.711 13.2637ZM450.231 27.752C448.207 40.5752 443.857 53.6308 439.785 63.8828C430.866 56.3599 419.344 51.8261 406.763 51.8261C395.446 51.8261 384.987 55.494 376.508 61.7058C373.034 51.1903 369.115 38.64 366.386 27.9054C367.505 26.8626 369.957 25.3772 374.219 23.8941C382.655 20.9592 395.018 19.1028 407.902 18.8326C420.81 18.5618 433.161 19.9065 441.64 22.679C445.936 24.0837 448.428 25.5971 449.615 26.7498C450.384 27.4967 450.276 27.6751 450.24 27.735C450.235 27.7421 450.232 27.7475 450.231 27.752ZM415.47 92.6009L408.025 69.6885L400.58 92.6009H376.489L395.979 106.762L388.534 129.674L408.025 115.513L427.515 129.674L420.071 106.762L439.561 92.6009H415.47Z" fill="black"/>
<path d="M12.6792 260.627L24.2113 249.007H70.6017V336.459H31.9867V272.159H12.6792V260.627ZM12.6792 341.788H89.9092V364.94H12.6792V341.788ZM223.839 341.788L200.687 364.94H156.306V341.788H185.224V249.007H200.687L223.839 272.159V341.788ZM150.365 364.94H134.989L111.75 341.788V272.159L134.989 249.007H179.283V272.159H150.365V364.94ZM383.366 326.15H396.471V348.778H383.366V364.94H346.236V249.007H383.366V326.15ZM280.8 327.286L340.121 256.87V302.737L319.066 326.15H340.121V348.778H289.974L280.8 327.286ZM522.8 341.788L499.648 364.94H455.267V341.788H484.184V249.007H499.648L522.8 272.159V341.788ZM449.326 364.94H433.95L410.711 341.788V272.159L433.95 249.007H478.244V272.159H449.326V364.94ZM591.031 260.627L602.563 249.007H648.954V336.459H610.339V272.159H591.031V260.627ZM591.031 341.788H668.261V364.94H591.031V341.788ZM802.191 341.788L779.039 364.94H734.658V341.788H763.576V249.007H779.039L802.191 272.159V341.788ZM728.717 364.94H713.341L690.102 341.788V272.159L713.341 249.007H757.635V272.159H728.717V364.94Z" fill="black"/>
<circle cx="257.921" cy="308.293" r="7.15689" fill="black"/>
<circle cx="558.511" cy="308.293" r="7.15689" fill="black"/>
<mask id="mask0" mask-type="alpha" maskUnits="userSpaceOnUse" x="204" y="98" width="408" height="564">
<path d="M611.766 505.888L408.216 661.037L204.665 505.888V406.433L408.216 561.582L611.766 406.433V505.888Z" fill="#484848"/>
<path fill-rule="evenodd" clip-rule="evenodd" d="M585.779 217.95L611.767 198.142V98.6876L455.298 217.95H585.779ZM230.653 217.95H361.135L204.666 98.6876V198.142L230.653 217.95Z" fill="#484848"/>
<path fill-rule="evenodd" clip-rule="evenodd" d="M268.662 404.372L408.216 510.742L547.77 404.372H417.289L408.216 411.288L399.144 404.372H268.662Z" fill="#484848"/>
</mask>
<g mask="url(#mask0)">
<rect width="407.101" height="416.32" transform="translate(204.666 284.834)" fill="white"/>
<rect x="241.097" y="284.834" width="416.32" height="36.4309" transform="rotate(90 241.097 284.834)" fill="#AB0000"/>
<rect x="302.875" y="284.834" width="416.32" height="36.4309" transform="rotate(90 302.875 284.834)" fill="#AB0000"/>
<rect x="364.653" y="284.834" width="416.32" height="36.4309" transform="rotate(90 364.653 284.834)" fill="#AB0000"/>
<rect x="426.432" y="284.834" width="416.32" height="36.4309" transform="rotate(90 426.432 284.834)" fill="#AB0000"/>
<rect x="488.21" y="284.834" width="416.32" height="36.4309" transform="rotate(90 488.21 284.834)" fill="#AB0000"/>
<rect x="549.989" y="284.834" width="416.32" height="36.4309" transform="rotate(90 549.989 284.834)" fill="#AB0000"/>
<rect x="611.767" y="284.834" width="416.32" height="36.4309" transform="rotate(90 611.767 284.834)" fill="#AB0000"/>
<rect width="406.986" height="236.972" transform="translate(204.666 47.8616)" fill="#304891"/>
<path d="M231.671 130.323L236.635 145.599H252.697L239.702 155.041L244.666 170.317L231.671 160.876L218.676 170.317L223.64 155.041L210.645 145.599H226.707L231.671 130.323Z" fill="white"/>
<path d="M279.921 174.539L284.884 189.816H300.947L287.952 199.257L292.916 214.534L279.921 205.093L266.926 214.534L271.889 199.257L258.894 189.816H274.957L279.921 174.539Z" fill="white"/>
<path d="M535.905 174.539L540.869 189.816H556.931L543.936 199.257L548.9 214.534L535.905 205.093L522.91 214.534L527.873 199.257L514.878 189.816H530.941L535.905 174.539Z" fill="white"/>
<path d="M585.086 130.323L590.049 145.599H606.112L593.117 155.041L598.081 170.317L585.086 160.876L572.091 170.317L577.054 155.041L564.059 145.599H580.122L585.086 130.323Z" fill="white"/>
</g>
</svg>
