<svg width="817" height="662" viewBox="0 0 817 662" fill="none" xmlns="http://www.w3.org/2000/svg">
<path fill-rule="evenodd" clip-rule="evenodd" d="M462.595 13.2637C467.028 17.5684 469.808 23.5672 468.685 30.6839C466.267 45.9946 461.086 61.0543 456.624 72.1115C455.295 75.4044 454.017 78.3743 452.875 80.9273C456.091 87.63 457.893 95.1406 457.893 103.072C457.893 131.374 434.95 154.318 406.647 154.318C378.345 154.318 355.401 131.374 355.401 103.072C355.401 93.9172 357.802 85.3232 362.008 77.8849C361.178 75.4675 360.261 72.7674 359.296 69.8711C355.507 58.505 350.894 43.9128 347.79 31.4976C345.988 24.2903 349.093 18.2878 353.299 14.2992C357.208 10.5923 362.557 8.00803 367.927 6.13963C378.85 2.33909 393.334 0.333162 407.392 0.0382538C421.426 -0.25614 436.111 1.13105 447.367 4.81142C452.938 6.63312 458.489 9.27639 462.595 13.2637ZM450.116 27.752C448.092 40.5752 443.741 53.6308 439.67 63.8828C430.751 56.3599 419.229 51.8261 406.647 51.8261C395.331 51.8261 384.872 55.494 376.393 61.7058C372.919 51.1902 369 38.64 366.271 27.9054C367.39 26.8626 369.842 25.3772 374.104 23.8941C382.539 20.9592 394.903 19.1028 407.786 18.8326C420.695 18.5618 433.045 19.9065 441.525 22.679C445.821 24.0837 448.312 25.5971 449.499 26.7498C450.269 27.4967 450.161 27.6751 450.124 27.735C450.12 27.7421 450.117 27.7475 450.116 27.752ZM415.354 92.6009L407.91 69.6885L400.465 92.6009H376.374L395.864 106.762L388.419 129.674L407.91 115.513L427.4 129.674L419.955 106.762L439.446 92.6009H415.354Z" fill="white"/>
<path d="M12.5641 260.627L24.0962 249.007H70.4866V336.459H31.8716V272.159H12.5641V260.627ZM12.5641 341.788H89.7941V364.94H12.5641V341.788ZM223.724 341.788L200.572 364.94H156.191V341.788H185.109V249.007H200.572L223.724 272.159V341.788ZM150.25 364.94H134.874L111.635 341.788V272.159L134.874 249.007H179.168V272.159H150.25V364.94ZM383.251 326.15H396.356V348.778H383.251V364.94H346.121V249.007H383.251V326.15ZM280.685 327.286L340.006 256.87V302.737L318.951 326.15H340.006V348.778H289.858L280.685 327.286ZM522.684 341.788L499.533 364.94H455.152V341.788H484.069V249.007H499.533L522.684 272.159V341.788ZM449.211 364.94H433.835L410.596 341.788V272.159L433.835 249.007H478.129V272.159H449.211V364.94ZM590.916 260.627L602.448 249.007H648.838V336.459H610.223V272.159H590.916V260.627ZM590.916 341.788H668.146V364.94H590.916V341.788ZM802.076 341.788L778.924 364.94H734.543V341.788H763.461V249.007H778.924L802.076 272.159V341.788ZM728.602 364.94H713.226L689.987 341.788V272.159L713.226 249.007H757.52V272.159H728.602V364.94Z" fill="white"/>
<circle cx="257.806" cy="308.293" r="7.15689" fill="white"/>
<circle cx="558.396" cy="308.293" r="7.15689" fill="white"/>
<mask id="mask0" style="mask-type:alpha" maskUnits="userSpaceOnUse" x="204" y="98" width="408" height="564">
<path d="M611.651 505.888L408.101 661.037L204.55 505.888V406.433L408.101 561.582L611.651 406.433V505.888Z" fill="#484848"/>
<path fill-rule="evenodd" clip-rule="evenodd" d="M585.664 217.95L611.651 198.142V98.6876L455.183 217.95H585.664ZM230.538 217.95H361.019L204.55 98.6876V198.142L230.538 217.95Z" fill="#484848"/>
<path fill-rule="evenodd" clip-rule="evenodd" d="M268.547 404.372L408.101 510.742L547.655 404.372H417.174L408.101 411.288L399.029 404.372H268.547Z" fill="#484848"/>
</mask>
<g mask="url(#mask0)">
<rect width="407.101" height="416.32" transform="translate(204.551 284.834)" fill="white"/>
<rect x="240.982" y="284.834" width="416.32" height="36.4309" transform="rotate(90 240.982 284.834)" fill="#AB0000"/>
<rect x="302.76" y="284.834" width="416.32" height="36.4309" transform="rotate(90 302.76 284.834)" fill="#AB0000"/>
<rect x="364.538" y="284.834" width="416.32" height="36.4309" transform="rotate(90 364.538 284.834)" fill="#AB0000"/>
<rect x="426.317" y="284.834" width="416.32" height="36.4309" transform="rotate(90 426.317 284.834)" fill="#AB0000"/>
<rect x="488.095" y="284.834" width="416.32" height="36.4309" transform="rotate(90 488.095 284.834)" fill="#AB0000"/>
<rect x="549.873" y="284.834" width="416.32" height="36.4309" transform="rotate(90 549.873 284.834)" fill="#AB0000"/>
<rect x="611.652" y="284.834" width="416.32" height="36.4309" transform="rotate(90 611.652 284.834)" fill="#AB0000"/>
<rect width="406.986" height="236.972" transform="translate(204.551 47.8616)" fill="#304891"/>
<path d="M231.556 130.323L236.519 145.599H252.582L239.587 155.041L244.551 170.317L231.556 160.876L218.561 170.317L223.524 155.041L210.529 145.599H226.592L231.556 130.323Z" fill="white"/>
<path d="M279.806 174.539L284.769 189.816H300.832L287.837 199.257L292.801 214.534L279.806 205.093L266.811 214.534L271.774 199.257L258.779 189.816H274.842L279.806 174.539Z" fill="white"/>
<path d="M535.79 174.539L540.753 189.816H556.816L543.821 199.257L548.785 214.534L535.79 205.093L522.795 214.534L527.758 199.257L514.763 189.816H530.826L535.79 174.539Z" fill="white"/>
<path d="M584.971 130.323L589.934 145.599H605.997L593.002 155.041L597.966 170.317L584.971 160.876L571.976 170.317L576.939 155.041L563.944 145.599H580.007L584.971 130.323Z" fill="white"/>
</g>
</svg>
