<svg width="100" height="100" viewBox="0 0 100 100" fill="none" xmlns="http://www.w3.org/2000/svg">
<g clip-path="url(#clip0)">
<path d="M93.9184 26.75C93.4235 24.7725 92.4154 22.9607 90.9961 21.4975C89.5768 20.0343 87.7966 18.9716 85.8351 18.4166C78.6684 16.6666 50.0017 16.6666 50.0017 16.6666C50.0017 16.6666 21.3351 16.6666 14.1684 18.5833C12.2069 19.1382 10.4266 20.201 9.00734 21.6642C7.58805 23.1273 6.58002 24.9392 6.08506 26.9166C4.77346 34.1898 4.13188 41.5679 4.1684 48.9583C4.12164 56.4043 4.76326 63.8387 6.08506 71.1666C6.63073 73.0826 7.66134 74.8256 9.07733 76.2269C10.4933 77.6283 12.2468 78.6408 14.1684 79.1666C21.3351 81.0833 50.0017 81.0833 50.0017 81.0833C50.0017 81.0833 78.6684 81.0833 85.8351 79.1666C87.7966 78.6117 89.5768 77.5489 90.9961 76.0858C92.4154 74.6226 93.4235 72.8107 93.9184 70.8333C95.2199 63.6149 95.8614 56.293 95.8351 48.9583C95.8818 41.5123 95.2402 34.0779 93.9184 26.75Z" stroke="#AB0000" stroke-width="10" stroke-linecap="round" stroke-linejoin="round"/>
<path d="M40.625 62.5833L64.5833 48.9583L40.625 35.3333V62.5833Z" fill="#AB0000" stroke="#AB0000" stroke-width="2" stroke-linecap="round" stroke-linejoin="round"/>
</g>
<defs>
<clipPath id="clip0">
<rect width="100" height="100" fill="white"/>
</clipPath>
</defs>
</svg>
